<?xml version="1.0" encoding="UTF-8"?>
<svg xmlns="http://www.w3.org/2000/svg" xmlns:xlink="http://www.w3.org/1999/xlink" width="375pt" height="374.999991pt" viewBox="0 0 375 374.999991" version="1.2">
<defs>
<clipPath id="clip1">
  <path d="M 114.40625 32.667969 L 260.65625 32.667969 L 260.65625 337.167969 L 114.40625 337.167969 Z M 114.40625 32.667969 "/>
</clipPath>
</defs>
<g id="surface1">
<g clip-path="url(#clip1)" clip-rule="nonzero">
<path style=" stroke:none;fill-rule:nonzero;fill:rgb(0.389099%,40.388489%,41.958618%);fill-opacity:1;" d="M 207.054688 267.03125 C 213.714844 259.289062 220.40625 251.578125 227.035156 243.839844 C 236.71875 232.492188 240.796875 232.167969 252.0625 242.136719 C 253.46875 243.398438 254.320312 245.507812 255.875 246.332031 C 262.449219 249.730469 260.65625 253.925781 257.519531 258.527344 C 252.792969 265.476562 248.394531 272.691406 243.4375 279.464844 C 229.351562 298.640625 213.480469 316.230469 195.554688 331.890625 C 188.25 338.28125 185.109375 338.957031 177.21875 333.648438 C 169.679688 328.578125 162.257812 322.859375 156.242188 316.144531 C 153.132812 312.65625 152.164062 306.378906 152.015625 301.308594 C 151.636719 285.589844 150.871094 269.964844 146.472656 254.773438 C 140.632812 234.75 131.714844 216.277344 118.542969 199.972656 C 114.347656 194.785156 114.492188 194.695312 115.050781 187.277344 C 135.234375 193.433594 147.265625 209.238281 161.230469 226.128906 C 162.195312 218.652344 163.222656 213.199219 163.574219 207.714844 C 166.6875 162.96875 166.6875 118.285156 160.90625 73.71875 C 159.46875 62.722656 157.472656 51.84375 151.460938 42.078125 C 150.167969 39.96875 150.519531 36.890625 149.84375 32.695312 C 158.441406 34.867188 164.984375 36.480469 171.527344 38.210938 C 185.582031 41.960938 195.410156 51.082031 199.457031 64.570312 C 204.152344 80.226562 207.996094 96.324219 210.019531 112.507812 C 212.628906 133.328125 213.570312 154.410156 214.359375 175.402344 C 215.445312 204.195312 211.398438 232.609375 205.96875 260.816406 C 205.648438 262.515625 205.558594 264.273438 205.355469 265.976562 C 205.910156 266.328125 206.5 266.679688 207.054688 267.03125 Z M 207.054688 267.03125 "/>
</g>
</g>
</svg>
